<mxfile host="app.diagrams.net" modified="2023-09-25T20:55:47.423Z" agent="Mozilla/5.0 (Macintosh; Intel Mac OS X 10_15_7) AppleWebKit/605.1.15 (KHTML, like Gecko) Version/16.6 Safari/605.1.15" etag="sfI3RjQnilZFG09-b0X8" version="21.8.2" type="github">
  <diagram name="Page-1" id="Mp7mruEBsJCcqivMYmeF">
    <mxGraphModel dx="1122" dy="761" grid="1" gridSize="10" guides="1" tooltips="1" connect="1" arrows="1" fold="1" page="1" pageScale="1" pageWidth="850" pageHeight="1100" math="0" shadow="0">
      <root>
        <mxCell id="0" />
        <mxCell id="1" parent="0" />
        <mxCell id="CArdsCdoj0pyc9Zm-Yb5-1" value="" style="rounded=0;whiteSpace=wrap;html=1;" vertex="1" parent="1">
          <mxGeometry x="185" y="40" width="690" height="300" as="geometry" />
        </mxCell>
        <mxCell id="CArdsCdoj0pyc9Zm-Yb5-2" value="" style="rounded=0;whiteSpace=wrap;html=1;" vertex="1" parent="1">
          <mxGeometry x="189" y="400" width="690" height="300" as="geometry" />
        </mxCell>
        <mxCell id="CArdsCdoj0pyc9Zm-Yb5-3" style="edgeStyle=orthogonalEdgeStyle;rounded=0;orthogonalLoop=1;jettySize=auto;html=1;entryX=0;entryY=0.5;entryDx=0;entryDy=0;" edge="1" parent="1" source="CArdsCdoj0pyc9Zm-Yb5-5" target="CArdsCdoj0pyc9Zm-Yb5-12">
          <mxGeometry relative="1" as="geometry">
            <Array as="points">
              <mxPoint x="120" y="550" />
              <mxPoint x="120" y="480" />
            </Array>
          </mxGeometry>
        </mxCell>
        <mxCell id="CArdsCdoj0pyc9Zm-Yb5-4" style="edgeStyle=orthogonalEdgeStyle;rounded=0;orthogonalLoop=1;jettySize=auto;html=1;entryX=0;entryY=0.5;entryDx=0;entryDy=0;" edge="1" parent="1" source="CArdsCdoj0pyc9Zm-Yb5-5" target="CArdsCdoj0pyc9Zm-Yb5-15">
          <mxGeometry relative="1" as="geometry">
            <Array as="points">
              <mxPoint x="65" y="640" />
            </Array>
          </mxGeometry>
        </mxCell>
        <mxCell id="CArdsCdoj0pyc9Zm-Yb5-5" value="Homeowners" style="shape=umlActor;verticalLabelPosition=bottom;verticalAlign=top;html=1;outlineConnect=0;" vertex="1" parent="1">
          <mxGeometry x="50" y="520" width="30" height="60" as="geometry" />
        </mxCell>
        <mxCell id="CArdsCdoj0pyc9Zm-Yb5-6" style="edgeStyle=orthogonalEdgeStyle;rounded=0;orthogonalLoop=1;jettySize=auto;html=1;entryX=1;entryY=0.5;entryDx=0;entryDy=0;" edge="1" parent="1" source="CArdsCdoj0pyc9Zm-Yb5-7" target="CArdsCdoj0pyc9Zm-Yb5-18">
          <mxGeometry relative="1" as="geometry">
            <Array as="points">
              <mxPoint x="930" y="555" />
              <mxPoint x="930" y="555" />
            </Array>
          </mxGeometry>
        </mxCell>
        <mxCell id="CArdsCdoj0pyc9Zm-Yb5-7" value="Technician" style="shape=umlActor;verticalLabelPosition=bottom;verticalAlign=top;html=1;outlineConnect=0;" vertex="1" parent="1">
          <mxGeometry x="980" y="520" width="30" height="60" as="geometry" />
        </mxCell>
        <mxCell id="CArdsCdoj0pyc9Zm-Yb5-8" style="edgeStyle=orthogonalEdgeStyle;rounded=0;orthogonalLoop=1;jettySize=auto;html=1;" edge="1" parent="1" source="CArdsCdoj0pyc9Zm-Yb5-12" target="CArdsCdoj0pyc9Zm-Yb5-15">
          <mxGeometry relative="1" as="geometry" />
        </mxCell>
        <mxCell id="CArdsCdoj0pyc9Zm-Yb5-9" value="&amp;lt;&amp;lt;Extends&amp;gt;&amp;gt;" style="edgeLabel;html=1;align=center;verticalAlign=middle;resizable=0;points=[];" vertex="1" connectable="0" parent="CArdsCdoj0pyc9Zm-Yb5-8">
          <mxGeometry x="0.0772" y="-3" relative="1" as="geometry">
            <mxPoint x="3" y="-4" as="offset" />
          </mxGeometry>
        </mxCell>
        <mxCell id="CArdsCdoj0pyc9Zm-Yb5-10" style="edgeStyle=orthogonalEdgeStyle;rounded=0;orthogonalLoop=1;jettySize=auto;html=1;entryX=0.5;entryY=0;entryDx=0;entryDy=0;" edge="1" parent="1" source="CArdsCdoj0pyc9Zm-Yb5-12" target="CArdsCdoj0pyc9Zm-Yb5-18">
          <mxGeometry relative="1" as="geometry" />
        </mxCell>
        <mxCell id="CArdsCdoj0pyc9Zm-Yb5-11" value="&amp;lt;&amp;lt;Uses&amp;gt;&amp;gt;" style="edgeLabel;html=1;align=center;verticalAlign=middle;resizable=0;points=[];" vertex="1" connectable="0" parent="CArdsCdoj0pyc9Zm-Yb5-10">
          <mxGeometry x="0.1197" relative="1" as="geometry">
            <mxPoint as="offset" />
          </mxGeometry>
        </mxCell>
        <mxCell id="CArdsCdoj0pyc9Zm-Yb5-12" value="Use Case 2-1. Scheduling_Appointment" style="ellipse;whiteSpace=wrap;html=1;" vertex="1" parent="1">
          <mxGeometry x="320" y="440" width="160" height="80" as="geometry" />
        </mxCell>
        <mxCell id="CArdsCdoj0pyc9Zm-Yb5-13" style="edgeStyle=orthogonalEdgeStyle;rounded=0;orthogonalLoop=1;jettySize=auto;html=1;entryX=0.5;entryY=1;entryDx=0;entryDy=0;" edge="1" parent="1" source="CArdsCdoj0pyc9Zm-Yb5-15" target="CArdsCdoj0pyc9Zm-Yb5-18">
          <mxGeometry relative="1" as="geometry" />
        </mxCell>
        <mxCell id="CArdsCdoj0pyc9Zm-Yb5-14" value="&amp;lt;&amp;lt;Uses&amp;gt;&amp;gt;" style="edgeLabel;html=1;align=center;verticalAlign=middle;resizable=0;points=[];" vertex="1" connectable="0" parent="CArdsCdoj0pyc9Zm-Yb5-13">
          <mxGeometry x="0.2373" y="2" relative="1" as="geometry">
            <mxPoint x="-11" y="2" as="offset" />
          </mxGeometry>
        </mxCell>
        <mxCell id="CArdsCdoj0pyc9Zm-Yb5-15" value="Use Case 2-2. Modifying a scheduled appointment." style="ellipse;whiteSpace=wrap;html=1;" vertex="1" parent="1">
          <mxGeometry x="320" y="600" width="160" height="80" as="geometry" />
        </mxCell>
        <mxCell id="CArdsCdoj0pyc9Zm-Yb5-16" style="edgeStyle=orthogonalEdgeStyle;rounded=0;orthogonalLoop=1;jettySize=auto;html=1;entryX=0;entryY=1;entryDx=0;entryDy=0;" edge="1" parent="1" source="CArdsCdoj0pyc9Zm-Yb5-18" target="CArdsCdoj0pyc9Zm-Yb5-20">
          <mxGeometry relative="1" as="geometry">
            <Array as="points">
              <mxPoint x="710" y="380" />
              <mxPoint x="323" y="380" />
            </Array>
          </mxGeometry>
        </mxCell>
        <mxCell id="CArdsCdoj0pyc9Zm-Yb5-17" value="&amp;lt;&amp;lt;Uses&amp;gt;&amp;gt;" style="edgeLabel;html=1;align=center;verticalAlign=middle;resizable=0;points=[];" vertex="1" connectable="0" parent="CArdsCdoj0pyc9Zm-Yb5-16">
          <mxGeometry x="-0.1327" y="4" relative="1" as="geometry">
            <mxPoint as="offset" />
          </mxGeometry>
        </mxCell>
        <mxCell id="CArdsCdoj0pyc9Zm-Yb5-18" value="Use Case 2-3. Conducting an in-person energy audit of a home." style="ellipse;whiteSpace=wrap;html=1;" vertex="1" parent="1">
          <mxGeometry x="600" y="510" width="190" height="90" as="geometry" />
        </mxCell>
        <mxCell id="CArdsCdoj0pyc9Zm-Yb5-19" value="Scheduling&amp;nbsp; System" style="text;html=1;strokeColor=none;fillColor=none;align=center;verticalAlign=middle;whiteSpace=wrap;rounded=0;" vertex="1" parent="1">
          <mxGeometry x="210" y="400" width="110" height="40" as="geometry" />
        </mxCell>
        <mxCell id="CArdsCdoj0pyc9Zm-Yb5-20" value="Use Case 1-1. Connecting Electronic Devices" style="ellipse;whiteSpace=wrap;html=1;" vertex="1" parent="1">
          <mxGeometry x="300" y="110" width="160" height="80" as="geometry" />
        </mxCell>
        <mxCell id="CArdsCdoj0pyc9Zm-Yb5-21" style="edgeStyle=orthogonalEdgeStyle;rounded=0;orthogonalLoop=1;jettySize=auto;html=1;entryX=1;entryY=0.5;entryDx=0;entryDy=0;" edge="1" parent="1" source="CArdsCdoj0pyc9Zm-Yb5-22" target="CArdsCdoj0pyc9Zm-Yb5-23">
          <mxGeometry relative="1" as="geometry">
            <Array as="points">
              <mxPoint x="660" y="270" />
            </Array>
          </mxGeometry>
        </mxCell>
        <mxCell id="CArdsCdoj0pyc9Zm-Yb5-22" value="Use Case 1-2. Removing Connected Electronic Devices" style="ellipse;whiteSpace=wrap;html=1;" vertex="1" parent="1">
          <mxGeometry x="580" y="110" width="160" height="80" as="geometry" />
        </mxCell>
        <mxCell id="CArdsCdoj0pyc9Zm-Yb5-23" value="Use Case 1-3. User Registration" style="ellipse;whiteSpace=wrap;html=1;" vertex="1" parent="1">
          <mxGeometry x="440" y="230" width="160" height="80" as="geometry" />
        </mxCell>
        <mxCell id="CArdsCdoj0pyc9Zm-Yb5-24" value="Registration Service" style="text;html=1;strokeColor=none;fillColor=none;align=center;verticalAlign=middle;whiteSpace=wrap;rounded=0;" vertex="1" parent="1">
          <mxGeometry x="185" y="40" width="175" height="40" as="geometry" />
        </mxCell>
        <mxCell id="CArdsCdoj0pyc9Zm-Yb5-25" value="" style="rounded=0;whiteSpace=wrap;html=1;" vertex="1" parent="1">
          <mxGeometry x="190" y="770" width="690" height="300" as="geometry" />
        </mxCell>
        <mxCell id="CArdsCdoj0pyc9Zm-Yb5-26" value="Use Case 3-2. High_Energy_Usage_Warnings" style="ellipse;whiteSpace=wrap;html=1;" vertex="1" parent="1">
          <mxGeometry x="305" y="820" width="185" height="80" as="geometry" />
        </mxCell>
        <mxCell id="CArdsCdoj0pyc9Zm-Yb5-27" value="Use Case 3-1. View_Dashboard" style="ellipse;whiteSpace=wrap;html=1;" vertex="1" parent="1">
          <mxGeometry x="585" y="820" width="160" height="80" as="geometry" />
        </mxCell>
        <mxCell id="CArdsCdoj0pyc9Zm-Yb5-28" value="Use Case 3-3. Cutting/restoring power to an appliance." style="ellipse;whiteSpace=wrap;html=1;" vertex="1" parent="1">
          <mxGeometry x="445" y="960" width="160" height="80" as="geometry" />
        </mxCell>
        <mxCell id="CArdsCdoj0pyc9Zm-Yb5-29" value="Dashboard Analysis Service" style="text;html=1;strokeColor=none;fillColor=none;align=center;verticalAlign=middle;whiteSpace=wrap;rounded=0;" vertex="1" parent="1">
          <mxGeometry x="190" y="770" width="175" height="40" as="geometry" />
        </mxCell>
        <mxCell id="CArdsCdoj0pyc9Zm-Yb5-30" style="edgeStyle=orthogonalEdgeStyle;rounded=0;orthogonalLoop=1;jettySize=auto;html=1;" edge="1" parent="1">
          <mxGeometry relative="1" as="geometry">
            <mxPoint x="80" y="140" as="sourcePoint" />
            <mxPoint x="300.71796769724483" y="140" as="targetPoint" />
            <Array as="points">
              <mxPoint x="140" y="140" />
              <mxPoint x="140" y="140" />
            </Array>
          </mxGeometry>
        </mxCell>
        <mxCell id="CArdsCdoj0pyc9Zm-Yb5-31" style="edgeStyle=orthogonalEdgeStyle;rounded=0;orthogonalLoop=1;jettySize=auto;html=1;entryX=0.5;entryY=1;entryDx=0;entryDy=0;" edge="1" parent="1" source="CArdsCdoj0pyc9Zm-Yb5-32" target="CArdsCdoj0pyc9Zm-Yb5-23">
          <mxGeometry relative="1" as="geometry">
            <Array as="points">
              <mxPoint x="55" y="330" />
              <mxPoint x="520" y="330" />
            </Array>
          </mxGeometry>
        </mxCell>
        <mxCell id="CArdsCdoj0pyc9Zm-Yb5-32" value="Homeowners" style="shape=umlActor;verticalLabelPosition=bottom;verticalAlign=top;html=1;outlineConnect=0;" vertex="1" parent="1">
          <mxGeometry x="40" y="110" width="30" height="60" as="geometry" />
        </mxCell>
        <mxCell id="CArdsCdoj0pyc9Zm-Yb5-33" style="edgeStyle=orthogonalEdgeStyle;rounded=0;orthogonalLoop=1;jettySize=auto;html=1;" edge="1" parent="1" source="CArdsCdoj0pyc9Zm-Yb5-35" target="CArdsCdoj0pyc9Zm-Yb5-22">
          <mxGeometry relative="1" as="geometry" />
        </mxCell>
        <mxCell id="CArdsCdoj0pyc9Zm-Yb5-34" style="edgeStyle=orthogonalEdgeStyle;rounded=0;orthogonalLoop=1;jettySize=auto;html=1;entryX=0.5;entryY=0;entryDx=0;entryDy=0;" edge="1" parent="1" source="CArdsCdoj0pyc9Zm-Yb5-35" target="CArdsCdoj0pyc9Zm-Yb5-20">
          <mxGeometry relative="1" as="geometry">
            <Array as="points">
              <mxPoint x="985" y="70" />
              <mxPoint x="380" y="70" />
            </Array>
          </mxGeometry>
        </mxCell>
        <mxCell id="CArdsCdoj0pyc9Zm-Yb5-35" value="Technician" style="shape=umlActor;verticalLabelPosition=bottom;verticalAlign=top;html=1;outlineConnect=0;" vertex="1" parent="1">
          <mxGeometry x="970" y="100" width="30" height="60" as="geometry" />
        </mxCell>
        <mxCell id="CArdsCdoj0pyc9Zm-Yb5-36" style="edgeStyle=orthogonalEdgeStyle;rounded=0;orthogonalLoop=1;jettySize=auto;html=1;" edge="1" parent="1" source="CArdsCdoj0pyc9Zm-Yb5-20" target="CArdsCdoj0pyc9Zm-Yb5-22">
          <mxGeometry relative="1" as="geometry">
            <mxPoint x="368" y="79" as="sourcePoint" />
            <mxPoint x="588" y="119" as="targetPoint" />
          </mxGeometry>
        </mxCell>
        <mxCell id="CArdsCdoj0pyc9Zm-Yb5-37" value="&amp;lt;&amp;lt;Uses&amp;gt;&amp;gt;" style="edgeLabel;html=1;align=center;verticalAlign=middle;resizable=0;points=[];" vertex="1" connectable="0" parent="CArdsCdoj0pyc9Zm-Yb5-36">
          <mxGeometry x="0.1197" relative="1" as="geometry">
            <mxPoint as="offset" />
          </mxGeometry>
        </mxCell>
        <mxCell id="CArdsCdoj0pyc9Zm-Yb5-38" style="edgeStyle=orthogonalEdgeStyle;rounded=0;orthogonalLoop=1;jettySize=auto;html=1;entryX=0;entryY=0.5;entryDx=0;entryDy=0;" edge="1" parent="1" source="CArdsCdoj0pyc9Zm-Yb5-20" target="CArdsCdoj0pyc9Zm-Yb5-23">
          <mxGeometry relative="1" as="geometry">
            <mxPoint x="365" y="200" as="sourcePoint" />
            <mxPoint x="485" y="200" as="targetPoint" />
          </mxGeometry>
        </mxCell>
        <mxCell id="CArdsCdoj0pyc9Zm-Yb5-39" value="&amp;lt;&amp;lt;Uses&amp;gt;&amp;gt;" style="edgeLabel;html=1;align=center;verticalAlign=middle;resizable=0;points=[];" vertex="1" connectable="0" parent="CArdsCdoj0pyc9Zm-Yb5-38">
          <mxGeometry x="0.1197" relative="1" as="geometry">
            <mxPoint as="offset" />
          </mxGeometry>
        </mxCell>
        <mxCell id="CArdsCdoj0pyc9Zm-Yb5-40" style="edgeStyle=orthogonalEdgeStyle;rounded=0;orthogonalLoop=1;jettySize=auto;html=1;entryX=0.544;entryY=-0.025;entryDx=0;entryDy=0;entryPerimeter=0;" edge="1" parent="1" source="CArdsCdoj0pyc9Zm-Yb5-32" target="CArdsCdoj0pyc9Zm-Yb5-22">
          <mxGeometry relative="1" as="geometry">
            <Array as="points">
              <mxPoint x="55" y="90" />
              <mxPoint x="667" y="90" />
            </Array>
          </mxGeometry>
        </mxCell>
      </root>
    </mxGraphModel>
  </diagram>
</mxfile>
